<svg width="100" height="48" viewBox="0 0 100 48" fill="none" xmlns="http://www.w3.org/2000/svg">
<path d="M10.4142 27.0654C10.7326 27.1637 11.0245 27.2386 11.3062 27.347C13.2483 28.0907 14.2948 29.5851 14.7766 31.5406C14.9689 32.3273 15.0675 33.134 15.0705 33.9439C15.0827 36.0045 15.0705 38.0663 15.0849 40.1269C15.0849 40.4064 14.992 40.4574 14.7394 40.4526C13.9058 40.4382 13.0706 40.4356 12.237 40.4526C11.9653 40.4584 11.9027 40.3734 11.9042 40.1121C11.9143 38.1019 11.9074 36.0911 11.9101 34.0804C11.9101 33.3691 11.857 32.6657 11.6448 31.9831C11.1985 30.5328 10.0831 29.6233 8.52092 29.5293C6.81706 29.4262 5.10842 29.5107 3.4019 29.4868C3.13074 29.4825 3.17372 29.6488 3.17372 29.8087V35.0058C3.17372 36.7005 3.16417 38.3951 3.18221 40.0892C3.1854 40.4042 3.08033 40.4579 2.79963 40.4521C1.99094 40.4351 1.18119 40.4303 0.373036 40.4521C0.0615539 40.4611 0.00159224 40.357 0.00159224 40.069C0.0100824 35.2769 0.0122047 30.4845 0.00795959 25.6916C0.00795959 22.6944 0.0132659 19.6977 0 16.701C0 16.3695 0.0774726 16.268 0.417079 16.2792C1.21303 16.3058 2.00898 16.302 2.80493 16.2792C3.10686 16.2712 3.17638 16.3621 3.17638 16.6564C3.16523 19.78 3.17638 22.9032 3.16205 26.0269C3.16205 26.3631 3.23103 26.4821 3.59027 26.4662C4.51092 26.4258 5.43741 26.5151 6.35328 26.3658C7.29675 26.2123 8.03752 25.7145 8.62546 24.9745C9.1094 24.3662 9.45643 23.6799 9.76473 22.9717C10.6859 20.8707 11.6103 18.768 12.5124 16.6569C12.6371 16.3663 12.7947 16.2765 13.1019 16.285C14.0247 16.3058 14.948 16.2994 15.8707 16.2882C16.1419 16.285 16.2003 16.3414 16.083 16.607C14.9782 19.0576 13.9005 21.5198 12.7793 23.963C12.0735 25.5009 11.6411 26.0215 10.4142 27.0654Z" fill="#EC3338"/>
<path d="M31.183 36.0683C31.183 37.125 31.183 38.1062 31.183 39.0868C31.183 39.2765 31.0238 39.3338 30.9076 39.4188C29.6303 40.3581 28.1849 40.7921 26.6131 40.7793C23.2887 40.7522 20.7337 39.388 19.1959 36.3669C18.4615 34.9246 18.2493 33.3601 18.3559 31.7584C18.5189 29.3068 19.4432 27.2084 21.3307 25.5833C24.5856 22.7805 29.9232 22.8995 32.8316 25.8452C34.2193 27.2503 34.8889 28.997 35.1871 30.9122C35.3177 31.7515 35.3463 32.5967 35.3463 33.4451C35.34 35.6582 35.3378 37.8719 35.3516 40.0855C35.3516 40.3899 35.2667 40.4627 34.9749 40.4574C34.2292 40.4369 33.4833 40.4369 32.7372 40.4574C32.457 40.4648 32.378 40.3942 32.3795 40.1052C32.3918 37.7024 32.3875 35.2991 32.3854 32.8963C32.3854 31.8275 32.2543 30.7777 31.8754 29.7716C31.097 27.7056 29.5677 26.6442 27.3974 26.4827C25.5222 26.343 23.8984 26.8912 22.6551 28.3542C20.998 30.3034 20.9104 33.7681 22.4503 35.7847C24.2545 38.1492 27.8591 38.5928 30.3398 36.7526C30.604 36.5539 30.8513 36.3371 31.183 36.0683Z" fill="#EC3338"/>
<path d="M50.8165 27.8824C50.1797 27.492 49.5811 27.1541 48.9343 26.9076C47.5287 26.3711 46.0991 26.2802 44.6664 26.7483C42.6601 27.4011 41.5845 28.895 41.2173 30.8919C40.8501 32.8888 41.2104 34.7699 42.6771 36.2701C44.175 37.8054 46.0514 38.2293 48.0837 37.7045C50.1001 37.1828 51.1847 35.6906 51.7201 33.7553C51.951 32.9228 52.0311 32.067 52.0311 31.2053C52.0311 26.375 52.0283 21.5448 52.0226 16.7148C52.0226 16.3647 52.1133 16.2749 52.4545 16.2898C53.1974 16.3164 53.9461 16.3057 54.6917 16.2935C54.9156 16.2898 54.9941 16.3397 54.9936 16.583C54.9846 21.5905 55.0159 26.5979 54.9697 31.6043C54.948 33.9125 54.3542 36.0837 52.87 37.9207C51.189 40.0021 48.9465 40.8505 46.322 40.7867C41.2725 40.656 38.5132 36.8487 38.1385 33.0285C37.8552 30.1285 38.6198 27.5626 40.8283 25.5965C43.2523 23.4381 46.0981 23.1311 49.1338 24.0198C49.6401 24.1766 50.1317 24.3773 50.6032 24.6196C50.7156 24.6754 50.8218 24.7195 50.8202 24.8879C50.8127 25.8659 50.8165 26.8465 50.8165 27.8824Z" fill="#29292A"/>
<path d="M88.7275 23.9019C88.7673 24.0363 88.6877 24.0995 88.6474 24.1712C87.7867 25.6991 86.9237 27.2258 86.0584 28.7515C85.6132 29.5378 85.1134 30.2757 84.2171 30.7033C84.5843 30.8096 84.8931 30.8754 85.1871 30.9833C86.6479 31.5198 87.3845 32.6429 87.6869 34.1096C87.852 34.9065 87.8599 35.7161 87.8594 36.5251C87.8594 37.714 87.8467 38.9024 87.8673 40.0908C87.8727 40.4026 87.7713 40.4627 87.4879 40.4536C86.7302 40.435 85.9714 40.4366 85.2131 40.4536C84.9621 40.4595 84.8947 40.3867 84.8947 40.1386C84.9018 38.8109 84.897 37.4828 84.8804 36.1543C84.8714 35.4818 84.7653 34.8209 84.4968 34.1962C84.2097 33.529 83.7051 33.1135 82.9887 33.0158C81.6934 32.8389 80.3886 32.9685 79.088 32.934C78.8169 32.9265 78.9177 33.1364 78.9171 33.2586C78.9108 34.9149 78.9129 36.5713 78.9129 38.2272C78.9129 38.8721 78.9012 39.5176 78.9193 40.1614C78.9256 40.4032 78.8492 40.4552 78.62 40.451C77.8368 40.4368 77.0532 40.4368 76.2693 40.451C76.0225 40.4557 75.9477 40.3909 75.9509 40.1386C75.9647 39.1016 75.9567 38.0668 75.9567 37.0282C75.9567 30.2638 75.9539 23.4994 75.9482 16.735C75.9482 16.3785 76.0178 16.2569 76.3961 16.2744C77.1024 16.3089 77.8129 16.3089 78.5186 16.2744C78.8789 16.2563 78.9203 16.3876 78.9198 16.6994C78.9097 20.9982 78.9198 25.2969 78.9044 29.5952C78.9044 29.9559 78.9803 30.0733 79.3544 30.052C79.9588 30.0191 80.5674 30.0557 81.1585 29.8969C81.8245 29.7195 82.336 29.3481 82.6799 28.7393C83.5427 27.2126 84.4193 25.6938 85.28 24.1659C85.393 23.9646 85.515 23.8891 85.7496 23.8929C86.7482 23.9104 87.7421 23.9019 88.7275 23.9019Z" fill="#29292A"/>
<path d="M72.1595 40.4473C70.6817 40.5005 69.0909 40.288 67.5924 39.5905C64.6813 38.23 62.8549 35.1737 62.9997 31.9231C63.1966 27.5085 66.1766 24.3796 70.5703 23.9631C71.5928 23.8658 72.6164 23.9264 73.639 23.8988C73.8263 23.894 73.873 23.9641 73.8708 24.14C73.8634 24.9368 73.8592 25.7337 73.8708 26.5305C73.8751 26.7606 73.7865 26.7962 73.5843 26.7962C72.6376 26.8073 71.6905 26.7579 70.7433 26.8551C67.8046 27.1553 65.7553 29.6425 66.036 32.5872C66.3013 35.3661 68.174 37.2249 70.9646 37.5011C71.8231 37.5861 72.6822 37.5489 73.5408 37.5489C73.8114 37.5489 73.8777 37.6281 73.8719 37.8894C73.8544 38.6332 73.8523 39.3811 73.8719 40.127C73.8799 40.4059 73.7828 40.4649 73.5286 40.4521C73.128 40.4325 72.7225 40.4473 72.1595 40.4473Z" fill="#29292A"/>
<path d="M57.5017 32.1786C57.5017 29.5373 57.506 26.8954 57.4954 24.2541C57.4954 23.9784 57.5484 23.8871 57.8429 23.8956C58.6256 23.9184 59.4099 23.9115 60.1931 23.8982C60.4107 23.895 60.4632 23.963 60.4632 24.1739C60.4572 29.5072 60.4572 34.8406 60.4632 40.1742C60.4632 40.4298 60.3698 40.4558 60.1575 40.4531C59.3865 40.442 58.6155 40.4345 57.8456 40.4531C57.5606 40.4611 57.4911 40.3846 57.4927 40.1004C57.5065 37.4601 57.5017 34.8183 57.5017 32.1786Z" fill="#29292A"/>
<path d="M58.9961 18.3579C60.0462 18.3638 60.7711 19.1256 60.7589 20.212C60.7477 21.2633 60.0016 22.0091 58.9664 22.0038C57.9311 21.9985 57.1993 21.2372 57.1978 20.1822C57.1988 19.1102 57.9444 18.3521 58.9961 18.3579Z" fill="#29292A"/>
<path d="M89.2072 0C89.4529 0.140778 89.7379 0.106246 89.9995 0.171588C91.0077 0.431894 91.9453 0.865915 92.8479 1.38068C93.0108 1.47365 93.0549 1.54749 92.9482 1.73024C92.6267 2.28379 92.6394 2.28219 92.0833 1.98629C91.1897 1.51083 90.2791 1.06672 89.2518 0.973225C88.2245 0.879728 87.7947 1.25372 87.809 2.31407C87.8281 3.72928 87.8971 5.14396 87.9464 6.55864C88.0642 9.91978 88.2081 13.2798 88.1369 16.6436C88.129 17.0282 88.1407 17.4261 87.8897 17.7964C87.6742 17.6015 87.4864 17.4155 87.28 17.2519C87.1707 17.1648 87.2195 17.0734 87.2227 16.9794C87.3129 14.2733 87.2131 11.5693 87.1282 8.86527C87.0608 6.71748 86.9743 4.57023 86.9048 2.42244C86.8921 2.03092 86.926 1.64046 87.0698 1.26647C87.2954 0.682106 87.7018 0.310242 88.3046 0.136528C88.4293 0.100404 88.5864 0.136528 88.6761 0H89.2072Z" fill="#EC3338"/>
<path d="M98.3923 6.23722C98.1912 6.40987 98.006 6.59899 97.7906 6.74296C97.641 6.84336 97.5783 6.65159 97.5056 6.57084C96.9278 5.94876 96.316 5.36493 95.6272 4.8661C95.3038 4.62243 94.9485 4.42438 94.5712 4.27749C93.8427 4.01187 93.4267 4.19462 93.2107 4.94207C93.0292 5.57158 92.9098 6.21703 92.7713 6.86036C91.9223 10.8085 91.1502 14.7758 90.1112 18.6798C90.0104 19.057 89.9128 19.4384 89.7223 19.7843C89.6066 19.9936 89.5212 20.0632 89.3402 19.7912C89.0776 19.3965 89.0542 19.0517 89.1874 18.5858C89.9934 15.7703 90.5623 12.8947 91.1799 10.0329C91.5365 8.37917 91.8698 6.72118 92.2412 5.0701C92.6249 3.34995 93.745 2.82934 95.3189 3.62938C96.4863 4.22437 97.4016 5.13491 98.2782 6.08582C98.308 6.12194 98.3356 6.16391 98.3923 6.23722Z" fill="#EC3338"/>
<path d="M84.9613 4.99308C85.1237 5.03983 85.3731 4.88099 85.4416 5.07861C85.5158 5.2911 85.4867 5.55672 85.4559 5.79047C85.4378 5.92859 85.268 5.88343 85.163 5.88874C84.3267 5.93018 83.5026 6.04174 82.7056 6.30895C82.297 6.44601 81.9054 6.6192 81.5759 6.90925C81.1832 7.25455 81.0729 7.67795 81.2103 8.17678C81.2915 8.47268 81.4353 8.7383 81.5817 9.00285C83.5451 12.5334 85.5647 16.0364 87.4272 19.6239C87.7238 20.1949 87.995 20.7798 88.2677 21.3626C88.3454 21.5349 88.4067 21.7142 88.4508 21.8981C88.5038 22.1015 88.4821 22.2168 88.1966 22.169C87.7721 22.0952 87.5232 21.9231 87.3253 21.4975C85.9775 18.5975 84.3596 15.8399 82.8149 13.0434C82.1368 11.8163 81.4448 10.5997 80.7608 9.37365C80.6685 9.20844 80.5762 9.04216 80.5003 8.86898C79.9606 7.63226 80.2987 6.56873 81.4655 5.88662C82.5432 5.25764 83.7441 5.09348 84.9613 4.99308Z" fill="#EC3338"/>
<path d="M99.2061 8.49234C99.1769 8.58637 99.1594 8.6464 99.1397 8.70484C98.3507 11.1676 97.5611 13.6299 96.6935 16.0662C96.6452 16.2016 96.6267 16.4423 96.4775 16.4258C96.2404 16.3998 96.0053 16.2819 95.7877 16.1655C95.6933 16.1124 95.7681 15.9807 95.8015 15.8866C96.6872 13.4164 97.4815 10.9153 98.2833 8.41691C98.3507 8.2076 98.4324 8.14226 98.6293 8.24319C98.8187 8.34094 99.0718 8.30535 99.2061 8.49234Z" fill="#EC3338"/>
<path d="M71.2312 45.4063C71.2312 45.128 71.2259 44.8501 71.2312 44.5723C71.245 44.0459 71.4833 43.6453 71.9561 43.4179C72.4135 43.1975 72.874 43.2432 73.2747 43.5582C73.4461 43.6931 73.54 43.6889 73.7167 43.564C74.5976 42.9473 75.6233 43.4009 75.7182 44.4639C75.7713 45.0786 75.7389 45.7012 75.7501 46.3201C75.7501 46.4635 75.7034 46.5081 75.5559 46.523C74.5031 46.6293 74.5036 46.6335 74.5036 45.587C74.5036 45.3468 74.5132 45.1062 74.4999 44.8666C74.4914 44.7184 74.5652 44.4809 74.32 44.4825C74.0749 44.4841 74.1078 44.7205 74.1078 44.8905C74.103 45.3453 74.094 45.8011 74.111 46.2553C74.1194 46.4778 74.0399 46.5209 73.8334 46.5241C72.8783 46.5368 72.8783 46.5437 72.8783 45.5732C72.8783 45.3453 72.8868 45.1174 72.8756 44.8905C72.8677 44.7264 72.9229 44.4767 72.6676 44.4852C72.4273 44.4932 72.4708 44.7412 72.4671 44.9065C72.457 45.3484 72.449 45.7915 72.4671 46.2345C72.4777 46.4731 72.4018 46.5257 72.171 46.5262C71.228 46.5262 71.228 46.5373 71.228 45.5971L71.2312 45.4063Z" fill="#2D2D2E"/>
<path d="M48.8547 45.672C48.8414 45.9541 48.8897 46.3461 48.7756 46.7313C48.6552 47.1632 48.3725 47.5317 47.9867 47.7595C47.6008 47.9873 47.1419 48.0567 46.7061 47.9531C46.5273 47.9122 46.3999 47.8469 46.4366 47.6301C46.4459 47.5418 46.4459 47.4528 46.4366 47.3645C46.4212 47.0505 46.3617 46.7626 46.8865 46.8976C47.2893 47.0006 47.5859 46.7137 47.6135 46.2749C47.6437 45.7968 47.6321 45.315 47.6199 44.8353C47.6135 44.5697 47.4607 44.4018 47.1832 44.4278C46.9476 44.4496 46.7841 44.5904 46.7815 44.8491C46.7783 45.1349 46.9614 45.2847 47.2134 45.2613C47.4437 45.2401 47.4697 45.3235 47.4564 45.5036C47.449 45.604 47.4564 45.7055 47.4564 45.8064C47.4564 46.3738 47.3981 46.4311 46.8345 46.3908C46.2604 46.3509 45.8688 46.0412 45.6454 45.5286C45.4039 44.975 45.4708 44.4374 45.8353 43.9561C46.2827 43.3654 47.0744 43.1465 47.8136 43.3877C48.5129 43.6156 48.8303 44.082 48.8525 44.9208C48.861 45.1328 48.8547 45.3479 48.8547 45.672Z" fill="#2D2D2E"/>
<path d="M63.5645 44.5686C63.4724 44.5431 63.3783 44.5253 63.2833 44.5154C63.0212 44.5154 62.8413 44.6387 62.8057 44.9033C62.7702 45.1678 62.9161 45.3383 63.1772 45.3872C63.4526 45.4403 63.6547 45.3378 63.712 45.0472C63.7366 44.8977 63.7471 44.7461 63.7433 44.5946C63.7433 43.8997 63.7518 43.2049 63.7433 42.5106C63.7396 42.2832 63.7741 42.1807 64.0458 42.1807C64.993 42.1807 64.993 42.169 64.9925 43.1109C64.9925 43.7043 65.0052 44.2987 64.9866 44.8916C64.9649 45.5891 64.6735 46.1389 64.0092 46.4268C63.3448 46.7148 62.7224 46.6351 62.1562 46.1941C61.8843 45.9836 61.6887 45.6897 61.5994 45.3574C61.5101 45.0251 61.532 44.6727 61.6617 44.3539C61.9238 43.6984 62.6168 43.2437 63.3003 43.2878C63.4324 43.2968 63.5804 43.2787 63.5709 43.5003C63.5534 43.853 63.5645 44.2057 63.5645 44.5686Z" fill="#2D2D2E"/>
<path d="M87.6866 43.7967C87.6531 44.2355 87.7487 44.7688 87.6303 45.2937C87.5365 45.7042 87.2916 46.0641 86.9444 46.3017C86.5972 46.5393 86.1732 46.6371 85.7572 46.5756C84.8471 46.4529 84.2321 45.7564 84.2576 44.8756C84.282 44.0363 84.9655 43.3605 85.8437 43.2894C86.1562 43.2644 86.3287 43.3393 86.2639 43.6963C86.2416 43.8185 86.2639 43.9486 86.2602 44.0745C86.2565 44.3269 86.3552 44.6307 85.8776 44.5324C85.6696 44.49 85.5184 44.7051 85.5009 44.9287C85.4834 45.1524 85.6113 45.3181 85.8288 45.3766C86.0464 45.435 86.2655 45.4074 86.3764 45.1683C86.4513 45.009 86.4592 44.8268 86.4587 44.6483C86.4587 43.9412 86.4682 43.233 86.4523 42.5233C86.4465 42.2747 86.49 42.1754 86.7707 42.1785C87.685 42.1876 87.685 42.1748 87.685 43.097L87.6866 43.7967Z" fill="#2D2D2E"/>
<path d="M54.9993 45.5339C54.9993 45.5588 54.9993 45.5843 54.9993 45.6098C54.9993 46.5294 54.9993 46.5209 54.0834 46.5241C53.8446 46.5241 53.7539 46.4747 53.765 46.217C53.7864 45.8006 53.785 45.3833 53.7607 44.967C53.7422 44.6451 53.5114 44.4656 53.2301 44.5182C52.9489 44.5707 52.8109 44.7487 52.8449 45.0319C52.8788 45.315 53.0709 45.4324 53.3278 45.391C53.5506 45.3554 53.5888 45.4351 53.5777 45.6258C53.5588 45.8272 53.5588 46.03 53.5777 46.2314C53.6217 46.5639 53.4525 46.6033 53.1813 46.5884C52.2198 46.5294 51.5273 45.782 51.5745 44.8353C51.6191 43.9465 52.4129 43.2543 53.35 43.2862C54.3858 43.3223 54.9786 43.9237 54.995 44.9628C55.0019 45.1551 54.9993 45.3442 54.9993 45.5339Z" fill="#2D2D2E"/>
<path d="M36.0437 45.4935C36.0437 45.2029 36.0209 44.9091 36.0485 44.6223C36.1222 43.8483 36.7218 43.3043 37.4891 43.2883C38.2793 43.2713 38.8826 43.7664 38.9558 44.5681C39.0089 45.1572 38.9717 45.7543 38.9813 46.3477C38.9813 46.4832 38.9282 46.5299 38.8025 46.5188C38.7648 46.5156 38.7266 46.5188 38.6889 46.5188C38.3864 46.5124 37.9906 46.6186 37.808 46.4657C37.616 46.3063 37.7619 45.8956 37.7497 45.5955C37.7396 45.3559 37.7497 45.1174 37.746 44.8751C37.7422 44.703 37.7725 44.4841 37.5183 44.474C37.253 44.4634 37.2838 44.6865 37.2817 44.8587C37.2758 45.3261 37.2716 45.7936 37.2817 46.2611C37.2864 46.454 37.2318 46.5156 37.0291 46.5225C36.0341 46.5565 36.0347 46.5634 36.0347 45.5663V45.4908L36.0437 45.4935Z" fill="#2D2D2E"/>
<path d="M44.2443 45.1333C44.0294 45.1333 43.8135 45.1185 43.6007 45.1376C43.3799 45.1573 43.269 45.0962 43.2796 44.8571C43.2881 44.6515 43.3354 44.5267 43.5853 44.5463C43.6877 44.5543 43.9106 44.6616 43.8984 44.4401C43.8872 44.2531 43.6861 44.2138 43.5105 44.2244C43.277 44.2382 43.1465 44.3838 43.0812 44.592C42.9835 44.8991 43.0026 45.1966 43.2303 45.442C43.2921 45.517 43.3804 45.5651 43.4768 45.5764C43.5732 45.5877 43.6703 45.5612 43.7477 45.5026C43.9068 45.3905 43.9711 45.4824 44.0549 45.5807C44.1387 45.6789 44.2343 45.7931 44.3255 45.8994C44.6216 46.2404 44.6152 46.2659 44.1828 46.4482C43.2637 46.8365 42.1812 46.3881 41.8671 45.4919C41.7931 45.2793 41.7631 45.0538 41.7791 44.8292C41.795 44.6047 41.8565 44.3857 41.9598 44.1857C42.0631 43.9857 42.206 43.8088 42.3798 43.666C42.5537 43.5231 42.7547 43.4172 42.9708 43.3548C43.9567 43.0652 44.9405 43.6055 45.156 44.5559C45.2791 45.0978 45.2504 45.1333 44.6959 45.1333H44.2443Z" fill="#2D2D2E"/>
<path d="M60.2692 45.1333C60.057 45.1333 59.8389 45.1222 59.6256 45.1365C59.4123 45.1509 59.3003 45.0924 59.3072 44.8475C59.3125 44.6143 59.4022 44.5394 59.6256 44.5479C59.7275 44.5516 59.9217 44.6478 59.9318 44.4624C59.9408 44.2897 59.7667 44.2308 59.6022 44.2223C59.5002 44.2111 59.3974 44.2361 59.3118 44.2928C59.2262 44.3496 59.1632 44.4346 59.1337 44.5331C59.0217 44.8438 59.0143 45.1578 59.2398 45.4261C59.3778 45.5886 59.5773 45.6306 59.7529 45.5137C59.9201 45.4027 59.9976 45.4723 60.0909 45.5934C60.1679 45.6933 60.2549 45.7857 60.3372 45.8813C60.6555 46.2532 60.6518 46.2628 60.2034 46.4492C59.2971 46.8264 58.2279 46.3961 57.9021 45.5196C57.5763 44.643 58.0358 43.6916 58.9336 43.3829C59.8888 43.0546 60.8901 43.5333 61.1623 44.4454C61.1845 44.5176 61.2006 44.5915 61.2106 44.6664C61.2636 45.1195 61.2525 45.1318 60.7993 45.1318L60.2692 45.1333Z" fill="#2D2D2E"/>
<path d="M82.6623 44.5564C82.6278 44.3067 82.4877 44.2297 82.2909 44.2238C82.0584 44.2169 81.9051 44.337 81.8292 44.5426C81.7141 44.856 81.7178 45.1662 81.9465 45.4313C82.0866 45.5939 82.2856 45.6257 82.4601 45.5094C82.6347 45.3931 82.7053 45.4834 82.796 45.5992C82.8581 45.6789 82.9287 45.7511 82.9945 45.8276C83.3659 46.2627 83.3617 46.2882 82.8268 46.4816C82.0033 46.7796 81.0704 46.4332 80.6809 45.6847C80.3058 44.9638 80.526 44.0836 81.2025 43.6028C81.9056 43.1034 82.9006 43.1884 83.488 43.7983C83.6555 43.9706 83.7802 44.1798 83.852 44.4092C84.0462 45.0254 83.9719 45.1328 83.3474 45.1328C83.0067 45.1328 82.6655 45.1237 82.3254 45.1365C82.1131 45.1439 81.99 45.0956 81.999 44.8491C82.007 44.6249 82.0929 44.525 82.3227 44.5521C82.4357 44.5602 82.5491 44.5616 82.6623 44.5564Z" fill="#2D2D2E"/>
<path d="M78.2895 43.6804C78.2895 43.2767 78.2985 42.873 78.2858 42.4698C78.2794 42.2689 78.3203 42.1685 78.5511 42.1855C78.8636 42.2094 79.2643 42.0926 79.468 42.2461C79.6601 42.3911 79.528 42.8151 79.5211 43.1147C79.5152 43.3495 79.5879 43.4419 79.8193 43.4037C80.0363 43.3675 80.1096 43.4637 80.0915 43.6767C80.0743 43.8653 80.0743 44.055 80.0915 44.2436C80.1186 44.5256 80.0745 44.7174 79.7232 44.6585C79.6336 44.643 79.5333 44.6659 79.5434 44.7907C79.5582 44.9655 79.5593 45.2099 79.7556 45.2327C80.2088 45.2858 80.0915 45.5966 80.1011 45.8617C80.1011 45.8994 80.1011 45.9377 80.1011 45.9754C80.1011 46.6527 80.0353 46.6968 79.3752 46.4599C78.689 46.2128 78.3203 45.688 78.2937 44.8917C78.2799 44.4885 78.2937 44.0842 78.2937 43.6804H78.2895Z" fill="#2D2D2E"/>
<path d="M56.2366 42.1902C56.8202 42.1902 56.8202 42.1903 56.8202 42.7852C56.8264 42.8859 56.8264 42.9868 56.8202 43.0875C56.7921 43.3218 56.86 43.4509 57.1227 43.4062C57.318 43.3717 57.3981 43.4487 57.3811 43.6533C57.3676 43.842 57.3676 44.0314 57.3811 44.2201C57.3976 44.4948 57.3976 44.7381 57.0038 44.6594C56.9338 44.6456 56.834 44.6594 56.8372 44.762C56.8431 44.9383 56.876 45.1014 57.0214 45.2401C57.137 45.3463 57.3928 45.2066 57.4034 45.4573C57.414 45.7973 57.4156 46.1389 57.3939 46.4779C57.3848 46.6149 57.2394 46.5729 57.145 46.5671C56.3082 46.514 55.6555 45.9147 55.6157 45.0749C55.5733 44.1813 55.603 43.2846 55.5956 42.3889C55.5956 42.2455 55.6359 42.1823 55.7866 42.1929C55.9373 42.2035 56.0864 42.1902 56.2366 42.1902Z" fill="#2D2D2E"/>
<path d="M39.5684 43.7096C39.5684 43.2804 39.5764 42.8506 39.5647 42.4214C39.5599 42.2402 39.6178 42.1626 39.7993 42.1897C39.8237 42.1935 39.8497 42.1897 39.8746 42.1897C40.1728 42.2126 40.5671 42.0591 40.7427 42.254C40.8897 42.4182 40.8075 42.8049 40.7958 43.0913C40.7847 43.3298 40.8441 43.4509 41.102 43.4031C41.3142 43.3648 41.3604 43.4711 41.3466 43.6586C41.3354 43.8355 41.3354 44.0129 41.3466 44.1898C41.3615 44.4672 41.3901 44.7429 40.9635 44.6573C40.8844 44.6414 40.8107 44.6658 40.8085 44.7694C40.8059 44.9389 40.8181 45.1546 40.9762 45.2045C41.7042 45.4324 41.2458 46.0152 41.3572 46.4221C41.4018 46.5852 41.2346 46.5698 41.1205 46.5645C40.2646 46.522 39.6279 45.8983 39.5833 45.0345C39.5605 44.5936 39.5796 44.1511 39.5796 43.7064L39.5684 43.7096Z" fill="#2D2D2E"/>
<path d="M33.9002 44.3577C33.9002 43.7393 33.9092 43.1215 33.8954 42.5037C33.8896 42.2715 33.932 42.1562 34.1968 42.1849C34.5316 42.2216 34.9726 42.0479 35.1795 42.2519C35.3865 42.4558 35.2395 42.8978 35.2422 43.2346C35.2501 44.2307 35.2379 45.2268 35.2501 46.2234C35.2501 46.4502 35.2008 46.5421 34.9593 46.5225C34.6218 46.4975 34.1809 46.6287 33.9718 46.463C33.7521 46.2861 33.9145 45.8255 33.9028 45.4919C33.8901 45.1142 33.9002 44.7359 33.9002 44.3577Z" fill="#2D2D2E"/>
<path d="M67.3238 44.3163C67.3238 43.6979 67.3318 43.0796 67.319 42.4612C67.3148 42.2487 67.3769 42.1876 67.5929 42.1839C68.5618 42.1669 68.5618 42.1595 68.5618 43.1242C68.5618 44.1591 68.5544 45.196 68.5676 46.2288C68.5676 46.463 68.5061 46.5225 68.2737 46.5247C67.3238 46.531 67.3238 46.5401 67.3238 45.6035V44.3163Z" fill="#2D2D2E"/>
<path d="M49.6034 45.4298C49.6034 45.1392 49.5854 44.8454 49.6066 44.558C49.6666 43.7489 50.3495 43.2028 51.1455 43.2931C51.328 43.3139 51.4182 43.3686 51.3996 43.5704C51.389 43.7597 51.3879 43.9495 51.3964 44.1389C51.3996 44.3599 51.4601 44.5819 51.0781 44.5564C50.8499 44.5415 50.8255 44.8024 50.8223 44.9942C50.8149 45.4234 50.8117 45.8537 50.8223 46.2829C50.8265 46.4577 50.7825 46.5156 50.5947 46.5241C49.5918 46.5693 49.5923 46.5772 49.5923 45.5817V45.4298H49.6034Z" fill="#2D2D2E"/>
<path d="M70.5177 44.9235C70.5177 45.3777 70.5108 45.8319 70.5209 46.2856C70.5251 46.4667 70.4646 46.5156 70.2842 46.5246C69.268 46.5778 69.268 46.5778 69.268 45.5557C69.268 44.9123 69.2755 44.269 69.2643 43.6262C69.2606 43.4169 69.3174 43.3468 69.5387 43.3404C70.5182 43.3128 70.5177 43.3053 70.5177 44.2807V44.9235Z" fill="#2D2D2E"/>
<path d="M77.6955 44.9484C77.6955 45.3782 77.6795 45.8085 77.7013 46.2367C77.714 46.4832 77.6244 46.523 77.4015 46.5235C76.4649 46.5273 76.4649 46.5347 76.4649 45.5912C76.4649 44.9341 76.4729 44.2769 76.4601 43.6203C76.4559 43.403 76.5249 43.3478 76.7382 43.343C77.6933 43.3223 77.6933 43.3154 77.6933 44.2663L77.6955 44.9484Z" fill="#2D2D2E"/>
<path d="M70.5214 42.5244C70.5214 42.8389 70.2306 43.0913 69.8846 43.0828C69.5498 43.0737 69.2876 42.8331 69.2818 42.5287C69.2765 42.2142 69.5567 41.9518 69.8995 41.9512C70.2423 41.9507 70.5245 42.2115 70.5214 42.5244Z" fill="#2D2D2E"/>
<path d="M77.7015 42.5058C77.7094 42.8341 77.4468 43.0832 77.0923 43.0832C76.7591 43.0832 76.489 42.85 76.472 42.5478C76.4545 42.2343 76.7278 41.9634 77.0689 41.9522C77.4192 41.9427 77.694 42.1828 77.7015 42.5058Z" fill="#2D2D2E"/>
</svg>
